<?xml version="1.0" encoding="UTF-8" standalone="no"?>
<!-- Created with Inkscape (http://www.inkscape.org/) -->

<svg
   xmlns:dc="http://purl.org/dc/elements/1.1/"
   xmlns:cc="http://creativecommons.org/ns#"
   xmlns:rdf="http://www.w3.org/1999/02/22-rdf-syntax-ns#"
   xmlns:svg="http://www.w3.org/2000/svg"
   xmlns="http://www.w3.org/2000/svg"
   xmlns:sodipodi="http://sodipodi.sourceforge.net/DTD/sodipodi-0.dtd"
   xmlns:inkscape="http://www.inkscape.org/namespaces/inkscape"
   width="400"
   height="400"
   id="svg2"
   version="1.1"
   inkscape:version="0.48.5 r10040"
   sodipodi:docname="yourSmash.svg">
  <defs
     id="defs4">
    <filter
       inkscape:collect="always"
       id="filter4770">
      <feGaussianBlur
         inkscape:collect="always"
         stdDeviation="1.2847877"
         id="feGaussianBlur4772" />
    </filter>
    <filter
       inkscape:collect="always"
       id="filter4774"
       x="-0.13102353"
       width="1.2620471"
       y="-0.0267288"
       height="1.0534576">
      <feGaussianBlur
         inkscape:collect="always"
         stdDeviation="1.4062586"
         id="feGaussianBlur4776" />
    </filter>
    <filter
       inkscape:collect="always"
       id="filter4778">
      <feGaussianBlur
         inkscape:collect="always"
         stdDeviation="1.3455232"
         id="feGaussianBlur4780" />
    </filter>
    <filter
       inkscape:collect="always"
       id="filter4782"
       x="-0.14260678"
       width="1.2852136"
       y="-0.026293125"
       height="1.0525862">
      <feGaussianBlur
         inkscape:collect="always"
         stdDeviation="1.7706712"
         id="feGaussianBlur4784" />
    </filter>
    <filter
       inkscape:collect="always"
       id="filter4786">
      <feGaussianBlur
         inkscape:collect="always"
         stdDeviation="2.6723586"
         id="feGaussianBlur4788" />
    </filter>
  </defs>
  <sodipodi:namedview
     id="base"
     pagecolor="#ffffff"
     bordercolor="#666666"
     borderopacity="1.0"
     inkscape:pageopacity="0.0"
     inkscape:pageshadow="2"
     inkscape:zoom="0.98994949"
     inkscape:cx="233.64462"
     inkscape:cy="202.33988"
     inkscape:document-units="px"
     inkscape:current-layer="layer1"
     showgrid="false"
     inkscape:window-width="1280"
     inkscape:window-height="687"
     inkscape:window-x="0"
     inkscape:window-y="1"
     inkscape:window-maximized="1" />
  <metadata
     id="metadata7">
    <rdf:RDF>
      <cc:Work
         rdf:about="">
        <dc:format>image/svg+xml</dc:format>
        <dc:type
           rdf:resource="http://purl.org/dc/dcmitype/StillImage" />
        <dc:title></dc:title>
      </cc:Work>
    </rdf:RDF>
  </metadata>
  <g
     inkscape:label="Layer 1"
     inkscape:groupmode="layer"
     id="layer1"
     transform="translate(0,-652.36218)">
    <path
       style="color:#000000;fill:#7c4057;fill-opacity:1;fill-rule:nonzero;stroke:none;stroke-width:1;marker:none;visibility:visible;display:inline;overflow:visible;enable-background:accumulate"
       d="m 270.72088,830.95603 c 0,0 -103.03556,-22.22336 -148.49242,4.04061 -45.456867,26.26396 17.23351,163.50257 17.23351,163.50257 0,0 -5.16149,25.48379 -13.91471,25.59129 l 140.07273,-1.7201 c 0.14104,-0 -10.39802,-10.0652 -6.11231,-21.8509 0,0 32.4264,-116.02538 11.2132,-169.56347 z"
       id="path3193"
       inkscape:connector-curvature="0"
       sodipodi:nodetypes="cscsscc" />
    <path
       style="fill:none;stroke:#7c4057;stroke-width:33;stroke-linecap:round;stroke-linejoin:miter;stroke-miterlimit:4;stroke-opacity:1;stroke-dasharray:none"
       d="M 124.28937,192.75629 77.822356,83.781643"
       id="path3212"
       inkscape:connector-curvature="0"
       transform="translate(0,652.36218)"
       sodipodi:nodetypes="cc" />
    <path
       style="fill:none;stroke:#7c4057;stroke-width:38;stroke-linecap:round;stroke-linejoin:miter;stroke-miterlimit:4;stroke-opacity:1;stroke-dasharray:none"
       d="M 166.65486,831.01694 139.38075,698.80879"
       id="path3214"
       inkscape:connector-curvature="0"
       sodipodi:nodetypes="cc" />
    <path
       style="fill:#7c4057;fill-opacity:1;stroke:#7c4057;stroke-width:43;stroke-linecap:round;stroke-linejoin:miter;stroke-miterlimit:4;stroke-opacity:1;stroke-dasharray:none"
       d="m 212.11173,832.02709 0,-154.43151"
       id="path3216"
       inkscape:connector-curvature="0"
       sodipodi:nodetypes="cc" />
    <path
       style="fill:none;stroke:#7c4057;stroke-width:40;stroke-linecap:round;stroke-linejoin:miter;stroke-miterlimit:4;stroke-opacity:1;stroke-dasharray:none"
       d="M 255.52798,844.0677 284.82241,703.77833"
       id="path3218"
       inkscape:connector-curvature="0"
       sodipodi:nodetypes="cc" />
    <path
       style="color:#000000;fill:#7c4057;fill-opacity:1;fill-rule:nonzero;stroke:none;stroke-width:1;marker:none;visibility:visible;display:inline;overflow:visible;enable-background:accumulate"
       d="m 245.44676,1000.6617 c 12.44683,-32.94398 39.46177,-41.0111 64.64977,-69.65996 32.32489,-38.3858 45.35534,-72.62946 60.50762,-83.74114 15.15229,-11.11167 -19.09137,-38.36549 -36.26396,-21.1929 -9.58455,9.58455 -26.58894,34.72156 -43.1111,45.52104 -13.08054,8.54992 -22.57222,-15.81648 -26.58942,-17.15554 -9.09138,-3.03047 -19.19291,146.2285 -19.19291,146.2285 z"
       id="path3988"
       inkscape:connector-curvature="0"
       sodipodi:nodetypes="ccssssc" />
    <path
       style="fill:#b49393;stroke:none;stroke-width:1px;stroke-linecap:butt;stroke-linejoin:miter;stroke-opacity:1;fill-opacity:1"
       d="m 73.214286,97.142857 c 0,0 2.819813,-7.142845 18.214286,-7.142857 0.714281,-10e-7 -2.857143,-15.000001 -10.714286,-18.214286 C 73.176529,68.702087 68.571429,74.999999 67.5,79.999999 66.428572,85 73.214286,97.142857 73.214286,97.142857 z"
       id="path4007"
       inkscape:connector-curvature="0"
       transform="translate(0,652.36218)"
       sodipodi:nodetypes="csssc" />
    <path
       style="fill:#b49393;stroke:none;stroke-width:1px;stroke-linecap:butt;stroke-linejoin:miter;stroke-opacity:1;color:#000000;fill-opacity:1;fill-rule:nonzero;marker:none;visibility:visible;display:inline;overflow:visible;enable-background:accumulate"
       d="m 128.57143,57.142857 c 0,0 11.42857,-7.500004 22.85714,-4.642858 1.42857,0.357143 -2.5,-17.857142 -7.14286,-19.285714 C 139.64286,31.785714 130,32.142857 127.5,37.857142 c -2.5,5.714286 1.07143,19.285715 1.07143,19.285715 z"
       id="path4517"
       inkscape:connector-curvature="0"
       transform="translate(0,652.36218)"
       sodipodi:nodetypes="csssc" />
    <path
       style="color:#000000;fill:#b49393;fill-opacity:1;fill-rule:nonzero;stroke:none;stroke-width:1px;marker:none;visibility:visible;display:inline;overflow:visible;enable-background:accumulate"
       d="m 198.21429,38.214285 c 0,0 15.65509,-7.261053 26.07142,-0.357143 0,0 3.13966,-18.098781 -1.78571,-23.571428 -6.42857,-7.1428578 -16.07143,-6.7857147 -21.78572,0.357142 -5.71428,7.142858 -2.49999,23.571429 -2.49999,23.571429 z"
       id="path4536"
       inkscape:connector-curvature="0"
       transform="translate(0,652.36218)"
       sodipodi:nodetypes="csssc" />
    <path
       style="color:#000000;fill:#b49393;fill-opacity:1;fill-rule:nonzero;stroke:none;stroke-width:1px;marker:none;visibility:visible;display:inline;overflow:visible;enable-background:accumulate"
       d="m 271.07143,59.285714 c 0,0 15.02438,-2.499984 20.71428,5 0,0 8.21429,-16.857143 3.57143,-23.642857 -4.64285,-6.785715 -12.5,-7.857143 -19.28571,-2.142858 -6.78572,5.714286 -5,20.785715 -5,20.785715 z"
       id="path4544"
       inkscape:connector-curvature="0"
       transform="translate(0,652.36218)"
       sodipodi:nodetypes="csssc" />
    <path
       style="color:#000000;fill:#b49393;fill-opacity:1;fill-rule:nonzero;stroke:none;stroke-width:1px;marker:none;visibility:visible;display:inline;overflow:visible;enable-background:accumulate"
       d="m 345.35714,202.85715 c 0,0 9.7362,1.78582 6.78572,16.07143 0,0 20,-28.92858 18.57143,-22.50001 -1.42858,6.42857 7.85714,-16.07142 -10.71429,-13.21428 -18.57143,2.85714 -14.64286,19.64286 -14.64286,19.64286 z"
       id="path4552"
       inkscape:connector-curvature="0"
       transform="translate(0,652.36218)"
       sodipodi:nodetypes="csssc" />
    <path
       style="fill:none;stroke:#000000;stroke-width:1px;stroke-linecap:butt;stroke-linejoin:miter;stroke-opacity:1;filter:url(#filter4770)"
       d="M 132.68712,177.88899 90.408653,77.256262"
       id="path4560"
       inkscape:connector-curvature="0"
       transform="translate(0,652.36218)"
       sodipodi:nodetypes="cc" />
    <path
       style="fill:none;stroke:#000000;stroke-width:1px;stroke-linecap:butt;stroke-linejoin:miter;stroke-opacity:1;filter:url(#filter4774)"
       d="M 182.39381,170.16491 155.56349,41.395846"
       id="path4562"
       inkscape:connector-curvature="0"
       transform="translate(0,652.36218)"
       sodipodi:nodetypes="cc" />
    <path
       style="fill:none;stroke:#000000;stroke-width:1px;stroke-linecap:butt;stroke-linejoin:miter;stroke-opacity:1;filter:url(#filter4778)"
       d="M 230.22812,171.74142 230.58526,26.993739"
       id="path4564"
       inkscape:connector-curvature="0"
       transform="translate(0,652.36218)"
       sodipodi:nodetypes="cc" />
    <path
       style="fill:none;stroke:#000000;stroke-width:1px;stroke-linecap:butt;stroke-linejoin:miter;stroke-opacity:1;filter:url(#filter4782)"
       d="M 275.68499,219.27987 272.44532,191.50067 301.53053,53.0126"
       id="path4566"
       inkscape:connector-curvature="0"
       transform="translate(0,652.36218)"
       sodipodi:nodetypes="ccc" />
    <path
       style="fill:none;stroke:#000000;stroke-width:1px;stroke-linecap:butt;stroke-linejoin:miter;stroke-opacity:1;filter:url(#filter4786)"
       d="m 259.73176,367.37926 -6.18347,-15.36151 11.67803,-40.13562 39.9623,-32.17694 65.86912,-89.79154"
       id="path4568"
       inkscape:connector-curvature="0"
       transform="translate(0,652.36218)"
       sodipodi:nodetypes="ccccc" />
    <path
       style="fill:none;stroke:#b49393;stroke-width:1px;stroke-linecap:butt;stroke-linejoin:miter;stroke-opacity:1"
       d="m 79.296975,108.06591 c 0,0 5.050763,-10.101521 15.657364,-7.07106"
       id="path4790"
       inkscape:connector-curvature="0"
       transform="translate(0,652.36218)" />
    <path
       style="fill:none;stroke:#b49393;stroke-width:1px;stroke-linecap:butt;stroke-linejoin:miter;stroke-opacity:1"
       d="m 94.449263,146.95679 c 0,0 9.596447,-9.59645 16.162437,-8.08122"
       id="path4792"
       inkscape:connector-curvature="0"
       transform="translate(0,652.36218)" />
    <path
       style="fill:none;stroke:#b49393;stroke-width:1px;stroke-linecap:butt;stroke-linejoin:miter;stroke-opacity:1"
       d="m 133.34014,71.195346 c 0,0 11.61675,-9.596449 20.20305,-4.04061"
       id="path4794"
       inkscape:connector-curvature="0"
       transform="translate(0,652.36218)" />
    <path
       style="fill:none;stroke:#b49393;stroke-width:1px;stroke-linecap:butt;stroke-linejoin:miter;stroke-opacity:1"
       d="m 141.92643,120.69282 c 0,0 14.14214,-8.5863 24.24366,-5.05076"
       id="path4796"
       inkscape:connector-curvature="0"
       transform="translate(0,652.36218)" />
    <path
       style="fill:none;stroke:#b49393;stroke-width:1px;stroke-linecap:butt;stroke-linejoin:miter;stroke-opacity:1"
       d="m 197.9899,50.487219 c 0,0 13.63706,-8.586297 26.26397,0"
       id="path4798"
       inkscape:connector-curvature="0"
       transform="translate(0,652.36218)" />
    <path
       style="fill:none;stroke:#b49393;stroke-width:1px;stroke-linecap:butt;stroke-linejoin:miter;stroke-opacity:1"
       d="m 200.0102,103.52023 c 0,0 14.64722,-6.565994 24.74874,0"
       id="path4800"
       inkscape:connector-curvature="0"
       transform="translate(0,652.36218)" />
    <path
       style="fill:none;stroke:#b49393;stroke-width:1px;stroke-linecap:butt;stroke-linejoin:miter;stroke-opacity:1"
       d="m 266.1752,67.154736 c 0,0 18.68782,-2.020305 24.74873,4.545687"
       id="path4802"
       inkscape:connector-curvature="0"
       transform="translate(0,652.36218)" />
    <path
       style="fill:none;stroke:#b49393;stroke-width:1px;stroke-linecap:butt;stroke-linejoin:miter;stroke-opacity:1"
       d="m 257.08382,112.10652 c 0,0 17.1726,-5.05076 26.76905,4.54569"
       id="path4804"
       inkscape:connector-curvature="0"
       transform="translate(0,652.36218)" />
    <path
       style="fill:none;stroke:#b49393;stroke-width:1px;stroke-linecap:butt;stroke-linejoin:miter;stroke-opacity:1"
       d="m 339.91633,209.08117 c 0,0 8.08122,3.03046 8.08122,16.16244"
       id="path4806"
       inkscape:connector-curvature="0"
       transform="translate(0,652.36218)" />
  </g>
</svg>
