<?xml version="1.0" encoding="UTF-8" standalone="no"?>
<!-- Created with Inkscape (http://www.inkscape.org/) -->

<svg
   xmlns:dc="http://purl.org/dc/elements/1.1/"
   xmlns:cc="http://creativecommons.org/ns#"
   xmlns:rdf="http://www.w3.org/1999/02/22-rdf-syntax-ns#"
   xmlns:svg="http://www.w3.org/2000/svg"
   xmlns="http://www.w3.org/2000/svg"
   xmlns:sodipodi="http://sodipodi.sourceforge.net/DTD/sodipodi-0.dtd"
   xmlns:inkscape="http://www.inkscape.org/namespaces/inkscape"
   width="400"
   height="400"
   id="svg3393"
   version="1.1"
   inkscape:version="0.48.5 r10040"
   sodipodi:docname="yourHand.svg">
  <defs
     id="defs3395">
    <filter
       inkscape:collect="always"
       id="filter4365"
       color-interpolation-filters="sRGB">
      <feGaussianBlur
         inkscape:collect="always"
         stdDeviation="2.8998105"
         id="feGaussianBlur4367" />
    </filter>
    <filter
       color-interpolation-filters="sRGB"
       inkscape:collect="always"
       id="filter4365-6">
      <feGaussianBlur
         inkscape:collect="always"
         stdDeviation="2.8998105"
         id="feGaussianBlur4367-7" />
    </filter>
    <filter
       color-interpolation-filters="sRGB"
       inkscape:collect="always"
       id="filter4365-4">
      <feGaussianBlur
         inkscape:collect="always"
         stdDeviation="2.8998105"
         id="feGaussianBlur4367-0" />
    </filter>
    <filter
       color-interpolation-filters="sRGB"
       inkscape:collect="always"
       id="filter4365-9">
      <feGaussianBlur
         inkscape:collect="always"
         stdDeviation="2.8998105"
         id="feGaussianBlur4367-2" />
    </filter>
    <filter
       color-interpolation-filters="sRGB"
       inkscape:collect="always"
       id="filter4365-1">
      <feGaussianBlur
         inkscape:collect="always"
         stdDeviation="2.8998105"
         id="feGaussianBlur4367-4" />
    </filter>
    <filter
       inkscape:collect="always"
       id="filter4141"
       x="-0.28380332"
       width="1.5676066"
       y="-1.5963927"
       height="4.1927855">
      <feGaussianBlur
         inkscape:collect="always"
         stdDeviation="2.986298"
         id="feGaussianBlur4143" />
    </filter>
    <filter
       inkscape:collect="always"
       id="filter4145"
       x="-0.30848181"
       width="1.6169636"
       y="-2.2805614"
       height="5.5611227">
      <feGaussianBlur
         inkscape:collect="always"
         stdDeviation="2.986298"
         id="feGaussianBlur4147" />
    </filter>
    <filter
       inkscape:collect="always"
       id="filter4149"
       x="-0.2627808"
       width="1.5255616"
       y="-0.85850508"
       height="2.7170102">
      <feGaussianBlur
         inkscape:collect="always"
         stdDeviation="2.986298"
         id="feGaussianBlur4151" />
    </filter>
    <filter
       inkscape:collect="always"
       id="filter4153"
       x="-0.39417113"
       width="1.7883423"
       y="-0.54363752"
       height="2.087275">
      <feGaussianBlur
         inkscape:collect="always"
         stdDeviation="2.986298"
         id="feGaussianBlur4155" />
    </filter>
  </defs>
  <sodipodi:namedview
     id="base"
     pagecolor="#ffffff"
     bordercolor="#666666"
     borderopacity="1.0"
     inkscape:pageopacity="0.0"
     inkscape:pageshadow="2"
     inkscape:zoom="0.98994949"
     inkscape:cx="170.01082"
     inkscape:cy="176.54814"
     inkscape:document-units="px"
     inkscape:current-layer="layer1"
     showgrid="false"
     inkscape:window-width="1280"
     inkscape:window-height="687"
     inkscape:window-x="0"
     inkscape:window-y="1"
     inkscape:window-maximized="1"
     showguides="true"
     inkscape:guide-bbox="true" />
  <metadata
     id="metadata3398">
    <rdf:RDF>
      <cc:Work
         rdf:about="">
        <dc:format>image/svg+xml</dc:format>
        <dc:type
           rdf:resource="http://purl.org/dc/dcmitype/StillImage" />
        <dc:title />
      </cc:Work>
    </rdf:RDF>
  </metadata>
  <g
     inkscape:label="Layer 1"
     inkscape:groupmode="layer"
     id="layer1"
     transform="translate(0,-652.36218)">
    <g
       id="g4307"
       style="stroke:#7c4057;stroke-opacity:1"
       transform="translate(-290.58962,65.570707)">
      <path
         sodipodi:nodetypes="cszsssc"
         inkscape:connector-curvature="0"
         id="path3403"
         d="m 433.66856,918.22306 c 0,0 99.33391,-2.17832 131.51249,-23.96147 32.17858,-21.78316 76.70136,-60.59874 84.56992,-68.96818 7.86856,-8.36943 10.38975,-44.37516 -34.20344,-25.4255 -32.96249,14.00725 -42.37926,30.8992 -65.70667,40.78788 -14.4628,6.1309 -51.86722,-32.41527 -83.99372,-33.52683 -83.94413,-2.90442 -32.17858,111.0941 -32.17858,111.0941 z"
         style="fill:#7c4057;fill-opacity:1;stroke:#7c4057;stroke-width:0.99777448px;stroke-linecap:butt;stroke-linejoin:miter;stroke-opacity:1" />
      <path
         sodipodi:nodetypes="cssssscc"
         inkscape:connector-curvature="0"
         id="path3401"
         d="m 320.89631,611.51218 c 0,0 30.64298,-24.22298 34.3416,-47.43927 6.40194,-40.18508 6.71274,-92.47819 32.39007,-111.50341 57.40003,-42.52966 130.10152,-27.10083 156.62291,2.97097 13.02374,14.76722 3.53668,48.93816 -3.21573,68.47825 -10.62944,30.7594 -16.27037,75.88706 -48.57831,82.25825 -40.25801,7.93896 -44.05873,51.54994 -44.05873,51.54994 z"
         style="fill:#7c4057;fill-opacity:1;stroke:#7c4057;stroke-opacity:1"
         transform="translate(0,308.2677)" />
      <path
         sodipodi:nodetypes="czc"
         inkscape:connector-curvature="0"
         id="path4206"
         d="m 526.24886,798.79358 c 0,0 57.12166,-72.99641 66.67008,-83.84265 9.54842,-10.84624 44.44671,-38.38579 44.44671,-38.38579"
         style="fill:none;stroke:#7c4057;stroke-width:42;stroke-linecap:round;stroke-linejoin:miter;stroke-miterlimit:4;stroke-opacity:1;stroke-dasharray:none" />
      <path
         sodipodi:nodetypes="czc"
         inkscape:connector-curvature="0"
         id="path4208"
         d="m 477.78185,791.72252 c 0,0 52.49801,-82.80663 58.58885,-91.92388 6.09084,-9.11725 54.54824,-60.60915 54.54824,-60.60915"
         style="color:#000000;fill:none;stroke:#7c4057;stroke-width:45;stroke-linecap:round;stroke-linejoin:miter;stroke-miterlimit:4;stroke-opacity:1;stroke-dasharray:none;stroke-dashoffset:0;marker:none;visibility:visible;display:inline;overflow:visible;enable-background:accumulate" />
      <path
         sodipodi:nodetypes="czc"
         inkscape:connector-curvature="0"
         id="path4210"
         d="m 441.49758,767.49916 c 0,0 37.00352,-71.82819 41.41626,-80.8122 4.41274,-8.98401 40.40609,-52.52794 40.40609,-52.52794"
         style="color:#000000;fill:none;stroke:#7c4057;stroke-width:40;stroke-linecap:round;stroke-linejoin:miter;stroke-miterlimit:4;stroke-opacity:1;stroke-dasharray:none;stroke-dashoffset:0;marker:none;visibility:visible;display:inline;overflow:visible;enable-background:accumulate" />
      <path
         sodipodi:nodetypes="czc"
         inkscape:connector-curvature="0"
         id="path4212"
         d="m 392.96965,782.63116 c 0,0 25.89068,-67.05 29.29442,-74.7513 3.40374,-7.7013 29.29442,-53.53809 29.29442,-53.53809"
         style="color:#000000;fill:none;stroke:#7c4057;stroke-width:35;stroke-linecap:round;stroke-linejoin:miter;stroke-miterlimit:4;stroke-opacity:1;stroke-dasharray:none;stroke-dashoffset:0;marker:none;visibility:visible;display:inline;overflow:visible;enable-background:accumulate" />
    </g>
    <path
       style="fill:#b49393;fill-opacity:1;stroke:none"
       d="m 342.34816,904.39676 c 0,0 3.76378,-17.07813 -1.88189,-19.70553 -5.64569,-2.62741 27.73335,-23.51612 23.90168,-4.18763 -3.83165,19.32851 -22.01979,23.89316 -22.01979,23.89316 z"
       id="path4183"
       inkscape:connector-curvature="0"
       sodipodi:nodetypes="cszc" />
    <path
       style="color:#000000;fill:#b49393;fill-opacity:1;fill-rule:nonzero;stroke:none;stroke-width:1.4445802px;marker:none;visibility:visible;display:inline;overflow:visible;enable-background:accumulate"
       d="m 346.68294,747.9381 c 0,0 -8.72013,-13.84068 -22.14996,-13.17358 0,0 16.26638,-13.49103 24.91872,-11.90385 8.65232,1.58718 10.20974,4.76155 10.55584,8.88822 0.34609,4.12665 -13.3246,16.18921 -13.3246,16.18921 z"
       id="path4231"
       inkscape:connector-curvature="0"
       sodipodi:nodetypes="csssc" />
    <path
       style="color:#000000;fill:#b49393;fill-opacity:1;fill-rule:nonzero;stroke:none;stroke-width:1.4445802px;marker:none;visibility:visible;display:inline;overflow:visible;enable-background:accumulate"
       d="m 302.98181,711.14718 c 0,0 -11.83676,-12.27042 -24.28571,-10.71429 -1.42857,0.17857 13.37835,-15.26317 20.9795,-16.23731 8.98162,-1.15106 15.40671,2.17321 15.00001,8.88525 -0.63338,10.45319 -11.6938,18.06635 -11.6938,18.06635 z"
       id="path4250"
       inkscape:connector-curvature="0"
       sodipodi:nodetypes="csssc" />
    <path
       style="color:#000000;fill:#b49393;fill-opacity:1;fill-rule:nonzero;stroke:none;stroke-width:1.4445802px;marker:none;visibility:visible;display:inline;overflow:visible;enable-background:accumulate"
       d="m 214.48665,694.42643 c 0,0 12.50151,-1.0066 17.93021,8.08123 0.53398,0.8939 13.8896,-12.12184 11.36422,-16.41498 -3.98785,-6.77933 -12.87945,-7.57614 -19.44544,-2.77792 -6.56599,4.79823 -9.84899,11.11167 -9.84899,11.11167 z"
       id="path4269"
       inkscape:connector-curvature="0"
       sodipodi:nodetypes="csssc" />
    <path
       style="color:#000000;fill:#b49393;fill-opacity:1;fill-rule:nonzero;stroke:none;stroke-width:1.4445802px;marker:none;visibility:visible;display:inline;overflow:visible;enable-background:accumulate"
       d="m 146.91038,716.14718 c 0,0 9.10732,-2.5 14.64286,3.21428 0,0 7.85714,-8.03571 6.60714,-12.67856 -2.00484,-7.44657 -12.5,-3.21429 -15.35714,-0.71429 -2.85714,2.5 -5.89286,10.17857 -5.89286,10.17857 z"
       id="path4288"
       inkscape:connector-curvature="0"
       sodipodi:nodetypes="csssc" />
    <path
       style="fill:none;stroke:#000000;stroke-width:1px;stroke-linecap:butt;stroke-linejoin:miter;stroke-opacity:1;filter:url(#filter4365)"
       d="m 245.83895,902.9329 8.92857,-38.57144 60.35714,-73.57142 46.78572,-37.85715"
       id="path4315"
       inkscape:connector-curvature="0"
       sodipodi:nodetypes="cccc" />
    <path
       style="color:#000000;fill:none;stroke:#000000;stroke-width:1px;stroke-linecap:butt;stroke-linejoin:miter;stroke-miterlimit:4;stroke-opacity:1;stroke-dasharray:none;stroke-dashoffset:0;marker:none;visibility:visible;display:inline;overflow:visible;filter:url(#filter4365-6);enable-background:accumulate"
       d="m 236.55324,813.29003 27.14286,-42.5 51.78571,-54.28571"
       id="path4369"
       inkscape:connector-curvature="0" />
    <path
       style="color:#000000;fill:none;stroke:#000000;stroke-width:1px;stroke-linecap:butt;stroke-linejoin:miter;stroke-miterlimit:4;stroke-opacity:1;stroke-dasharray:none;stroke-dashoffset:0;marker:none;visibility:visible;display:inline;overflow:visible;filter:url(#filter4365-4);enable-background:accumulate"
       d="m 186.55324,799.57575 22.5,-44.64286 38.92857,-46.42857"
       id="path4407"
       inkscape:connector-curvature="0" />
    <path
       style="color:#000000;fill:none;stroke:#000000;stroke-width:1px;stroke-linecap:butt;stroke-linejoin:miter;stroke-miterlimit:4;stroke-opacity:1;stroke-dasharray:none;stroke-dashoffset:0;marker:none;visibility:visible;display:inline;overflow:visible;filter:url(#filter4365-9);enable-background:accumulate"
       d="m 135.48181,804.00432 13.92857,-34.64285 25.00001,-43.92858"
       id="path4419"
       inkscape:connector-curvature="0"
       sodipodi:nodetypes="ccc" />
    <path
       style="color:#000000;fill:none;stroke:#000000;stroke-width:1px;stroke-linecap:butt;stroke-linejoin:miter;stroke-miterlimit:4;stroke-opacity:1;stroke-dasharray:none;stroke-dashoffset:0;marker:none;visibility:visible;display:inline;overflow:visible;filter:url(#filter4365-1);enable-background:accumulate"
       d="m 151.55323,1025.0758 16.42858,-35.71434 32.14286,-16.42857 37.85714,-6.42857 30.71428,-10.71428 34.28572,-25 36.42857,-28.57143"
       id="path4431"
       inkscape:connector-curvature="0"
       sodipodi:nodetypes="ccccccc" />
    <path
       style="fill:none;stroke:#b49393;stroke-width:1px;stroke-linecap:butt;stroke-linejoin:miter;stroke-opacity:1"
       d="m 141.42136,724.56768 c 0,0 7.07106,-3.53553 15.65736,2.52538"
       id="path3279"
       inkscape:connector-curvature="0" />
    <path
       style="fill:none;stroke:#b49393;stroke-width:1px;stroke-linecap:butt;stroke-linejoin:miter;stroke-opacity:1"
       d="m 122.22846,759.92302 c 0,0 9.59645,-5.55584 18.18274,1.01015"
       id="path3281"
       inkscape:connector-curvature="0" />
    <path
       style="fill:none;stroke:#b49393;stroke-width:1px;stroke-linecap:butt;stroke-linejoin:miter;stroke-opacity:1"
       d="m 207.08127,704.36463 c 0,0 9.59645,-2.02031 16.66752,6.06091"
       id="path3283"
       inkscape:connector-curvature="0" />
    <path
       style="fill:none;stroke:#b49393;stroke-width:1px;stroke-linecap:butt;stroke-linejoin:miter;stroke-opacity:1"
       d="m 182.33253,737.71997 c 0,0 12.62691,-6.06092 20.70813,4.54568"
       id="path3285"
       inkscape:connector-curvature="0" />
    <path
       style="fill:none;stroke:#b49393;stroke-width:1px;stroke-linecap:butt;stroke-linejoin:miter;stroke-opacity:1"
       d="m 269.71073,710.93062 c 0,0 14.14214,0 19.1929,8.5863"
       id="path3287"
       inkscape:connector-curvature="0"
       sodipodi:nodetypes="cc" />
    <path
       style="fill:none;stroke:#b49393;stroke-width:1px;stroke-linecap:butt;stroke-linejoin:miter;stroke-opacity:1"
       d="m 237.40615,746.28596 c 0,0 14.14214,-3.03046 21.21321,5.05076"
       id="path3289"
       inkscape:connector-curvature="0" />
    <path
       style="fill:none;stroke:#b49393;stroke-width:1px;stroke-linecap:butt;stroke-linejoin:miter;stroke-opacity:1"
       d="m 320.21836,741.74027 c 0,0 12.6269,-2.0203 17.17259,11.61676"
       id="path3291"
       inkscape:connector-curvature="0" />
    <path
       style="fill:none;stroke:#b49393;stroke-width:1px;stroke-linecap:butt;stroke-linejoin:miter;stroke-opacity:1"
       d="m 290.92394,766.48901 c 0,0 12.6269,-1.51522 17.1726,10.10153"
       id="path3293"
       inkscape:connector-curvature="0"
       sodipodi:nodetypes="cc" />
    <path
       style="fill:none;stroke:#b49393;stroke-width:1px;stroke-linecap:butt;stroke-linejoin:miter;stroke-opacity:1"
       d="m 326.78435,888.71747 c 0,0 10.6066,9.59645 6.06091,24.24366"
       id="path3295"
       inkscape:connector-curvature="0" />
  </g>
</svg>
