<?xml version="1.0" encoding="UTF-8" standalone="no"?>
<!-- Created with Inkscape (http://www.inkscape.org/) -->
<svg xmlns:rdf="http://www.w3.org/1999/02/22-rdf-syntax-ns#" xmlns="http://www.w3.org/2000/svg" height="500" width="500" version="1.1" xmlns:cc="http://creativecommons.org/ns#" xmlns:dc="http://purl.org/dc/elements/1.1/">
 <defs>
  <filter id="filter3803" height="1.9352365" width="1.2928362" color-interpolation-filters="sRGB" y="-0.46761823" x="-0.14641809">
   <feGaussianBlur stdDeviation="17.2556"/>
  </filter>
  <filter id="filter3803-3" width="1.2928362" y="-0.46761823" x="-0.14641809" height="1.9352365" color-interpolation-filters="sRGB">
   <feGaussianBlur stdDeviation="17.2556"/>
  </filter>
  <filter id="filter3803-1" height="1.9352365" width="1.2928362" color-interpolation-filters="sRGB" y="-0.46761823" x="-0.14641809">
   <feGaussianBlur stdDeviation="17.2556"/>
  </filter>
  <filter id="filter3803-1-1" height="1.9352365" width="1.2928362" color-interpolation-filters="sRGB" y="-0.46761823" x="-0.14641809">
   <feGaussianBlur stdDeviation="17.2556"/>
  </filter>
  <filter id="filter3803-3-6" width="1.2928362" y="-0.46761823" x="-0.14641809" height="1.9352365" color-interpolation-filters="sRGB">
   <feGaussianBlur stdDeviation="17.2556"/>
  </filter>
  <filter id="filter3803-1-1-6" height="1.9352365" width="1.2928362" color-interpolation-filters="sRGB" y="-0.46761823" x="-0.14641809">
   <feGaussianBlur stdDeviation="17.2556"/>
  </filter>
  <filter id="filter3803-1-1-6-6" height="1.9352365" width="1.2928362" color-interpolation-filters="sRGB" y="-0.46761823" x="-0.14641809">
   <feGaussianBlur stdDeviation="17.2556"/>
  </filter>
 </defs>
 <metadata>
  <rdf:RDF>
   <cc:Work rdf:about="">
    <dc:format>image/svg+xml</dc:format>
    <dc:type rdf:resource="http://purl.org/dc/dcmitype/StillImage"/>
    <dc:title/>
   </cc:Work>
  </rdf:RDF>
 </metadata>
 <g stroke-width="0" stroke-miterlimit="4" transform="translate(0,-552.36218)">
  <g transform="matrix(1.4815426,0,0,1.4103614,27.784416,-218.47937)">
   <path d="m-7.5,500c-6.8,0-13,7.3-15,18-2.9-0.91-6-1.4-9.1-1.4-19,0-35,18-35,41s16,41,35,41c3.5,0,6.9-0.61,10-1.7,6.1,5.8,16,9.5,27,9.5,15,0,27-6.9,32-16,27-1.1,48-17,48-37s-23-37-51-37c-4.8,0-9.5,0.49-14,1.4,0.44-1,0.69-2.2,0.69-3.4,0-4.5-3.5-8.2-7.8-8.2-3.1,0-5.8,1.9-7,4.6-3.1-6.6-7.7-11-13-11z" fill="#FFF"/>
   <path d="m220,470c-26,0-48,16-48,36s21,36,48,36c8.6,0,17-1.7,24-4.7,12,13,38,22,69,22,30,0,55-8.5,68-21,4.9,0.57,9.9,0.88,15,0.88,33,0,60-12,60-27s-27-27-60-27c-14,0-27,2.3-38,6-13-4.7-28-7.5-45-7.5-18,0-35,3.3-48,8.7-10-20-30-30-50-30z" fill-opacity="0.3188406" transform="matrix(0.42184401,0,0,0.54539107,-126.82768,281.26183)" filter="url(#filter3803)" fill="#438dbc"/>
  </g>
  <g transform="matrix(0.4628638,0,0,0.50285975,105.34197,440.62644)">
   <path d="m410,410c-62,0-120,14-160,37-3.9-6.2-11-10-19-10-10,0-19,7.3-22,17-3.1-1.8-6.7-2.8-11-2.8-11,0-20,8.3-20,19,0,1.8,0.29,3.4,0.78,5-67,5.1-120,37-120,75,0,42,62,76,140,76,12,0,24-0.92,36-2.6,5.3,17,23,30,45,30,20,0,37-11,44-26,25,5.8,53,9,82,9,54,0,100-11,140-29,12,2.4,26,3.8,40,3.8,69,0,120-32,120-71,0-33-40-61-93-68,0.15-1.2,0.22-2.4,0.22-3.7,0-18-17-33-37-33-10,0-19,3.6-26,9.3-38-21-91-34-150-34z" fill="#FFF"/>
   <path style="enable-background:accumulate;color:#000000;" d="m420,490c-36,0-69,10-89,26-17-7.9-41-13-69-13-51,0-92,17-92,39,0,21,41,39,92,39,20,0,39-2.8,54-7.4,15,24,55,42,100,42,47,0,87-17,100-40,16,5.4,35,8.7,56,8.7,51,0,92-19,92-41,0-23-41-41-92-41-29,0-54,5.8-71,15-20-20-50-30-80-30z" fill-opacity="0.30434798" fill-rule="nonzero" filter="url(#filter3803-3)" fill="#438dbc"/>
  </g>
  <g transform="matrix(0.34371482,0,0,0.42649335,-13.364672,626.99432)">
   <path d="m280,400c-16,0-30,13-36,33-6.9-1.7-14-2.6-22-2.6-46,0-84,34-84,76s37,76,84,76c8.4,0,16-1.1,24-3.2,14,11,37,18,63,18,35,0,65-13,75-30,70-20,120-50,120-90,0-37-54-68-120-68-11,0-23,0.9-33,2.6,1-1.9,1.6-4,1.6-6.2,0-8.3-8.3-15-19-15-7.3,0-14,3.5-17,8.5-7.3-12-18-20-30-20z" fill="#FFF"/>
   <path d="m220,470c-26,0-48,16-48,36s21,36,48,36c8.6,0,17-1.7,24-4.7,12,13,38,22,69,22,30,0,55-8.5,68-21,4.9,0.57,9.9,0.88,15,0.88,33,0,60-12,60-27s-27-27-60-27c-14,0-27,2.3-38,6-13-4.7-28-7.5-45-7.5-18,0-35,3.3-48,8.7-10-20-30-30-50-30z" fill-opacity="0.3188406" filter="url(#filter3803-1)" fill="#438dbc"/>
  </g>
  <g transform="matrix(0.62498036,0,0,0.76919691,339.88341,678.20242)">
   <path d="m280,400c-16,0-30,13-36,33-6.9-1.7-14-2.6-22-2.6-46,0-84,34-84,76s37,76,84,76c8.4,0,16-1.1,24-3.2,14,11,37,18,63,18,35,0,65-13,75-30,70-20,120-50,120-90,0-37-54-68-120-68-11,0-23,0.9-33,2.6,1-1.9,1.6-4,1.6-6.2,0-8.3-8.3-15-19-15-7.3,0-14,3.5-17,8.5-7.3-12-18-20-30-20z" fill="#FFF"/>
   <path d="m220,470c-26,0-48,16-48,36s21,36,48,36c8.6,0,17-1.7,24-4.7,12,13,38,22,69,22,30,0,55-8.5,68-21,4.9,0.57,9.9,0.88,15,0.88,33,0,60-12,60-27s-27-27-60-27c-14,0-27,2.3-38,6-13-4.7-28-7.5-45-7.5-18,0-35,3.3-48,8.7-10-20-30-30-50-30z" fill-opacity="0.3188406" filter="url(#filter3803-1-1)" fill="#438dbc"/>
  </g>
  <g transform="matrix(0.40572094,0,0,0.41614924,160.04865,712.78513)">
   <path d="m410,410c-62,0-120,14-160,37-3.9-6.2-11-10-19-10-10,0-19,7.3-22,17-3.1-1.8-6.7-2.8-11-2.8-11,0-20,8.3-20,19,0,1.8,0.29,3.4,0.78,5-67,5.1-120,37-120,75,0,42,62,76,140,76,12,0,24-0.92,36-2.6,5.3,17,23,30,45,30,20,0,37-11,44-26,25,5.8,53,9,82,9,54,0,100-11,140-29,12,2.4,26,3.8,40,3.8,69,0,120-32,120-71,0-33-40-61-93-68,0.15-1.2,0.22-2.4,0.22-3.7,0-18-17-33-37-33-10,0-19,3.6-26,9.3-38-21-91-34-150-34z" fill="#FFF"/>
   <path style="enable-background:accumulate;color:#000000;" d="m420,490c-36,0-69,10-89,26-17-7.9-41-13-69-13-51,0-92,17-92,39,0,21,41,39,92,39,20,0,39-2.8,54-7.4,15,24,55,42,100,42,47,0,87-17,100-40,16,5.4,35,8.7,56,8.7,51,0,92-19,92-41,0-23-41-41-92-41-29,0-54,5.8-71,15-20-20-50-30-80-30z" fill-opacity="0.30434798" fill-rule="nonzero" filter="url(#filter3803-3-6)" fill="#438dbc"/>
  </g>
  <g transform="matrix(0.62498036,0,0,0.76919691,339.88341,178.20242)">
   <path d="m280,400c-16,0-30,13-36,33-6.9-1.7-14-2.6-22-2.6-46,0-84,34-84,76s37,76,84,76c8.4,0,16-1.1,24-3.2,14,11,37,18,63,18,35,0,65-13,75-30,70-20,120-50,120-90,0-37-54-68-120-68-11,0-23,0.9-33,2.6,1-1.9,1.6-4,1.6-6.2,0-8.3-8.3-15-19-15-7.3,0-14,3.5-17,8.5-7.3-12-18-20-30-20z" fill="#FFF"/>
   <path d="m220,470c-26,0-48,16-48,36s21,36,48,36c8.6,0,17-1.7,24-4.7,12,13,38,22,69,22,30,0,55-8.5,68-21,4.9,0.57,9.9,0.88,15,0.88,33,0,60-12,60-27s-27-27-60-27c-14,0-27,2.3-38,6-13-4.7-28-7.5-45-7.5-18,0-35,3.3-48,8.7-10-20-30-30-50-30z" fill-opacity="0.3188406" filter="url(#filter3803-1-1-6)" fill="#438dbc"/>
  </g>
  <g transform="matrix(0.62498036,0,0,0.76919691,-160.11659,678.20242)">
   <path d="m280,400c-16,0-30,13-36,33-6.9-1.7-14-2.6-22-2.6-46,0-84,34-84,76s37,76,84,76c8.4,0,16-1.1,24-3.2,14,11,37,18,63,18,35,0,65-13,75-30,70-20,120-50,120-90,0-37-54-68-120-68-11,0-23,0.9-33,2.6,1-1.9,1.6-4,1.6-6.2,0-8.3-8.3-15-19-15-7.3,0-14,3.5-17,8.5-7.3-12-18-20-30-20z" fill="#FFF"/>
   <path d="m220,470c-26,0-48,16-48,36s21,36,48,36c8.6,0,17-1.7,24-4.7,12,13,38,22,69,22,30,0,55-8.5,68-21,4.9,0.57,9.9,0.88,15,0.88,33,0,60-12,60-27s-27-27-60-27c-14,0-27,2.3-38,6-13-4.7-28-7.5-45-7.5-18,0-35,3.3-48,8.7-10-20-30-30-50-30z" fill-opacity="0.3188406" filter="url(#filter3803-1-1-6-6)" fill="#438dbc"/>
  </g>
 </g>
</svg>
