<?xml version="1.0"?><svg width="640" height="480" xmlns="http://www.w3.org/2000/svg">
 <title>yellow Splat</title>
 <metadata id="metadata7">image/svg+xml</metadata>
 <g>
  <title>Layer 1</title>
  <g id="layer1">
   <path d="m168.141068,487.056335c-3.598053,-4.534912 -5.303177,-14.408386 -3.841827,-22.245636c1.454239,-7.799194 1.949249,-8.788605 17.024551,-34.032501c22.282852,-37.312866 30.219482,-57.355164 45.703461,-115.414032c0.678787,-2.545349 -2.61322,-5.726074 -5.926422,-5.726074c-4.306656,0 -7.602936,3.186554 -9.666031,9.344482c-2.327209,6.946228 -3.852295,8.366333 -9.839981,9.162567c-5.713043,0.759735 -12.518524,-1.945007 -15.23465,-6.054688c-1.920853,-2.906403 -1.914719,-3.653137 0.111816,-13.549927c2.02478,-9.888184 2.032333,-10.765778 0.134933,-15.691345c-5.638489,-14.637238 -19.55809,-16.378876 -27.543259,-3.446289c-5.370941,8.698578 -17.072021,23.634094 -23.847992,30.440063c-11.995964,12.04892 -19.837189,12.433411 -27.9216,1.369202c-2.673927,-3.659485 -3.545258,-6.14624 -3.545258,-10.117859c0,-4.576111 0.584221,-5.798126 4.460869,-9.330139c5.711288,-5.203491 13.768539,-9.643646 26.467873,-14.58548c17.290726,-6.728577 24.905823,-12.706085 29.216049,-22.933197c3.205612,-7.606018 1.714798,-16.945099 -3.113907,-19.507095c-7.093964,-3.763931 -15.444214,2.550888 -29.66246,22.43187c-13.190872,18.444458 -20.327553,22.969818 -35.060921,22.232239c-10.185066,-0.509918 -15.016228,-3.214203 -20.58136,-11.520508c-5.075035,-7.57486 -6.541344,-13.138245 -6.031944,-22.886581c0.375259,-7.18158 1.012192,-9.270386 4.238052,-13.89856c4.514099,-6.476578 12.706421,-11.931564 21.813309,-14.524872c3.717316,-1.058609 15.181641,-2.355392 26.170479,-2.960266c24.306282,-1.338013 31.788338,-2.8022 58.501457,-11.44838c13.505402,-4.371231 17.558289,-7.373932 17.558289,-13.008469c0,-3.415726 -4.911133,-8.23233 -9.313141,-9.133865c-3.233475,-0.66217 -27.710587,-3.030991 -31.338257,-3.032776c-3.303726,-0.001633 -9.164932,-5.776794 -10.413788,-10.260925c-1.798462,-6.457443 0.840561,-11.668808 6.70134,-13.233383c6.239456,-1.665634 10.856522,-0.219879 22.369629,7.00473c5.227051,3.28006 13.14711,7.065826 17.600052,8.412781c7.775101,2.351868 8.306046,2.369614 13.384583,0.446808c10.217468,-3.868515 11.448502,-10.692764 4.392197,-24.348083c-5.82193,-11.266556 -16.532791,-22.6129 -25.656815,-27.179115c-13.773773,-6.89315 -22.746628,-17.840889 -28.359207,-34.600945c-2.23436,-6.672195 -2.75795,-10.743164 -2.730133,-21.228027c0.030457,-11.49934 0.391815,-13.739368 3.181671,-19.723598c6.956146,-14.92049 20.752777,-15.335072 29.702728,-0.892513c2.868881,4.629482 3.736862,8.574932 7.000275,31.819778c4.274231,30.444626 5.909317,35.458107 15.374527,47.139915c9.799606,12.094543 18.423035,15.96962 23.761063,10.677536c3.498856,-3.468735 3.995911,-7.271088 1.873077,-14.326935c-1.049393,-3.487801 -2.215561,-10.056343 -2.591522,-14.596802c-0.59137,-7.140961 -0.185501,-9.784164 3.006439,-19.580994c5.982605,-18.361893 4.809525,-26.300537 -6.55867,-44.383129c-6.612167,-10.51759 -7.253098,-15.098637 -2.776993,-19.848429c5.571518,-5.912149 13.571472,-8.248739 16.45369,-4.805731c0.915115,1.09321 1.24881,8.85289 1.052338,24.471203c-0.318008,25.268265 -0.745728,23.357292 9.2108,41.150055c3.424042,6.119041 6.480957,19.146164 6.510986,27.746826c0.011749,3.393219 0.802429,7.035645 1.848511,8.516335c3.308655,4.683098 14.600372,6.014214 19.365906,2.282883c0.861298,-0.67437 3.911835,-4.821274 6.778931,-9.215294c2.982361,-4.570503 7.269043,-9.338058 10.017853,-11.141479c4.118195,-2.701843 5.731293,-3.07618 11.287445,-2.6194c5.400787,0.444031 7.289734,1.255852 11.318848,4.864571c3.801331,3.404762 5.813507,4.331589 9.403839,4.331589c9.512329,0 20.406311,-8.959297 20.406311,-16.782219c0,-1.903481 -1.611938,-7.102036 -3.582275,-11.552444c-5.289948,-11.949097 -5.589081,-16.511063 -1.816345,-27.701183c6.505859,-19.296642 12.333557,-24.657948 26.810852,-24.66523c12.039642,-0.006039 20.305328,5.691559 22.403107,15.442642c1.403442,6.524017 0.383362,11.368378 -5.422729,25.750729c-12.62558,31.275208 -13.406769,40.969406 -4.048828,50.24688c2.406799,2.386078 6.620117,5.004898 9.363129,5.819641c8.057404,2.393295 13.796539,-0.494293 24.745819,-12.451073c10.942108,-11.948738 16.5755,-14.81665 23.483429,-11.955162c3.645447,1.510063 4.544952,2.679703 6.129944,7.970985c1.021637,3.410675 1.857513,7.502754 1.857513,9.093529c0,12.54068 -11.627228,24.973434 -26.765228,28.619324c-3.271332,0.787872 -8.509857,2.698959 -11.641205,4.246841c-17.959564,8.877777 -10.345825,27.38913 11.299133,27.471619c9.594025,0.036591 17.89624,-3.461151 28.296906,-11.921478c18.930908,-15.399261 42.25293,-31.876434 51.552032,-36.421921c14.931946,-7.298897 35.313843,-10.096504 49.652283,-6.815247c14.793457,3.385376 20.521057,18.172256 12.899292,33.302246c-3.990051,7.92041 -5.15979,8.2715 -19.327759,5.800369c-22.724121,-3.963409 -42.55191,-2.187012 -62.337524,5.584869c-16.610168,6.524612 -34.504333,16.141251 -37.575378,20.193802c-6.327057,8.349152 -4.798492,17.157959 3.988556,22.984772c10.605408,7.032486 13.23407,10.054047 13.9086,15.98703c0.896057,7.880768 -1.162598,11.695221 -9.405304,17.427368c-10.875092,7.562775 -14.011841,14.4935 -10.010468,22.11792c2.483887,4.73291 6.493164,8.012787 13.796509,11.286438c9.556122,4.283508 16.138824,4.893219 26.989716,2.499878c12.985931,-2.864288 22.000519,-1.971161 30.897247,3.060974c14.546326,8.227753 22.253113,18.210754 27.235596,35.279755c1.728516,5.921326 2.228271,11.422668 2.196289,24.176331c-0.046631,18.641174 -1.52179,24.423767 -7.893311,30.940826c-14.436157,14.766418 -36.554718,-5.509918 -44.290649,-40.601532c-3.337463,-15.139496 -7.115234,-23.352783 -13.611237,-29.592712c-8.503082,-8.167847 -29.574097,-16.563995 -37.752167,-15.042969c-5.220703,0.971039 -13.031433,8.748932 -14.674286,14.612732c-2.768219,9.880707 -0.894135,16.007568 8.910645,29.130585c18.653564,24.966614 24.037201,35.211609 25.251587,48.05368c0.778809,8.236267 -0.659058,11.4133 -6.653992,14.701172c-6.079712,3.334412 -11.112061,4.164154 -16.512054,2.722626c-6.386902,-1.705109 -10.009979,-5.857269 -10.558136,-12.100098c-2.871643,-32.704193 -4.908936,-41.046326 -12.041412,-49.307312c-7.443268,-8.620941 -19.600555,-11.831665 -29.411774,-7.767548c-7.608337,3.151703 -8.948059,7.579712 -7.191925,23.770752c0.632324,5.829956 0.471161,9.144104 -0.535461,11.008667c-1.513824,2.80423 -7.844574,6.006165 -11.875183,6.006165c-6.468506,0 -16.144104,-14.760803 -21.444122,-32.714722c-3.232941,-10.951935 -6.36792,-14.69458 -12.308899,-14.69458c-6.740356,0 -9.980133,2.771606 -12.237152,10.468323c-3.100647,10.574554 -1.861938,20.388519 5.183746,41.068634c6.870148,20.164581 7.739594,22.242462 18.752533,44.814758c6.192719,12.692841 8.18277,18.049835 8.60611,23.16687c0.723877,8.750488 -1.346985,14.742828 -6.084869,17.607025c-7.174164,4.336945 -11.528625,2.421265 -17.21936,-7.575439c-5.529114,-9.712921 -7.187042,-17.301727 -8.460205,-38.724091c-1.809326,-30.444336 -8.016541,-57.115265 -18.555878,-79.730072c-5.139282,-11.027588 -7.061371,-13.218811 -11.59549,-13.218811c-9.457214,0 -16.690857,9.655243 -16.787445,22.40744c-0.052246,6.904541 0.438232,8.520355 4.939148,16.273315c2.748566,4.734283 5.812561,10.988525 6.809113,13.898468c1.830597,5.345703 2.254272,18.648804 0.766754,24.077606c-1.246338,4.54834 -7.578583,7.072021 -17.749786,7.074188c-10.84198,0.002228 -14.768555,-1.861938 -17.339539,-8.232086c-3.102707,-7.687714 -2.42334,-15.0289 2.826477,-30.541931c5.571655,-16.464111 6.354858,-27.795441 2.502472,-36.204651c-2.368683,-5.170258 -7.530624,-9.93161 -10.767288,-9.93161c-6.977524,0 -17.69902,23.314514 -25.630585,55.735046c-4.228241,17.283539 -5.668518,25.538391 -10.646057,61.019073c-3.318283,23.653564 -5.210312,30.316101 -10.763306,37.902191c-7.795029,10.648956 -25.833038,15.598389 -31.37796,8.609924l0,0z" id="path2529" stroke-dashoffset="0" stroke-miterlimit="4" stroke-width="0.999849" stroke="#ffff56" fill-rule="evenodd" fill="#ffff00"/>
  </g>
 </g>
</svg>