<?xml version="1.0" encoding="UTF-8" standalone="no"?>
<!-- Created with Inkscape (http://www.inkscape.org/) -->
<svg xmlns:rdf="http://www.w3.org/1999/02/22-rdf-syntax-ns#" xmlns="http://www.w3.org/2000/svg" height="400" width="400" version="1.1" xmlns:cc="http://creativecommons.org/ns#" xmlns:dc="http://purl.org/dc/elements/1.1/">
 <defs>
  <filter id="filter4365" color-interpolation-filters="sRGB">
   <feGaussianBlur stdDeviation="2.8998105"/>
  </filter>
  <filter id="filter4365-6" color-interpolation-filters="sRGB">
   <feGaussianBlur stdDeviation="2.8998105"/>
  </filter>
  <filter id="filter4365-4" color-interpolation-filters="sRGB">
   <feGaussianBlur stdDeviation="2.8998105"/>
  </filter>
  <filter id="filter4365-9" color-interpolation-filters="sRGB">
   <feGaussianBlur stdDeviation="2.8998105"/>
  </filter>
  <filter id="filter4365-1" color-interpolation-filters="sRGB">
   <feGaussianBlur stdDeviation="2.8998105"/>
  </filter>
 </defs>
 <metadata>
  <rdf:RDF>
   <cc:Work rdf:about="">
    <dc:format>image/svg+xml</dc:format>
    <dc:type rdf:resource="http://purl.org/dc/dcmitype/StillImage"/>
    <dc:title/>
   </cc:Work>
  </rdf:RDF>
 </metadata>
 <g transform="translate(0,-652.36218)">
  <g stroke="#7c4057" transform="translate(-290.58962,65.570707)">
   <path stroke-linejoin="miter" d="m434,918s99.3-2.18,132-24c32.2-21.8,76.7-60.6,84.6-69,7.87-8.37,10.4-44.4-34.2-25.4-33,14-42.4,30.9-65.7,40.8-14.5,6.13-51.9-32.4-84-33.5-83.9-2.9-32.2,111-32.2,111z" stroke-linecap="butt" stroke-width="0.99777448px" fill="#7c4057"/>
   <path d="m321,612s30.6-24.2,34.3-47.4c6.4-40.2,6.71-92.5,32.4-112,57.4-42.5,130-27.1,157,2.97,13,14.8,3.54,48.9-3.22,68.5-10.6,30.8-16.3,75.9-48.6,82.3-40.3,7.94-44.1,51.5-44.1,51.5z" transform="translate(0,308.2677)" fill="#7c4057"/>
   <path stroke-linejoin="miter" d="m526,799s57.1-73,66.7-83.8c9.55-10.8,44.4-38.4,44.4-38.4" stroke-linecap="round" stroke-miterlimit="4" stroke-dasharray="none" stroke-width="42" fill="none"/>
   <path stroke-linejoin="miter" style="enable-background:accumulate;color:#000000;" d="m478,792s52.5-82.8,58.6-91.9c6.09-9.12,54.5-60.6,54.5-60.6" stroke-dashoffset="0" stroke-linecap="round" stroke-miterlimit="4" stroke-dasharray="none" stroke-width="45" fill="none"/>
   <path stroke-linejoin="miter" style="enable-background:accumulate;color:#000000;" d="m441,767s37-71.8,41.4-80.8c4.41-8.98,40.4-52.5,40.4-52.5" stroke-dashoffset="0" stroke-linecap="round" stroke-miterlimit="4" stroke-dasharray="none" stroke-width="40" fill="none"/>
   <path stroke-linejoin="miter" style="enable-background:accumulate;color:#000000;" d="m393,783s25.9-67,29.3-74.8c3.4-7.7,29.3-53.5,29.3-53.5" stroke-dashoffset="0" stroke-linecap="round" stroke-miterlimit="4" stroke-dasharray="none" stroke-width="35" fill="none"/>
  </g>
  <path fill="#b49393" d="m342,904s3.76-17.1-1.88-19.7c-5.65-2.63,27.7-23.5,23.9-4.19-3.83,19.3-22,23.9-22,23.9z"/>
  <path style="enable-background:accumulate;color:#000000;" d="m347,748s-8.72-13.8-22.1-13.2c0,0,16.3-13.5,24.9-11.9,8.65,1.59,10.2,4.76,10.6,8.89,0.346,4.13-13.3,16.2-13.3,16.2z" fill-rule="nonzero" fill="#b49393"/>
  <path style="enable-background:accumulate;color:#000000;" d="m303,711s-11.8-12.3-24.3-10.7c-1.43,0.179,13.4-15.3,21-16.2,8.98-1.15,15.4,2.17,15,8.89-0.633,10.5-11.7,18.1-11.7,18.1z" fill-rule="nonzero" fill="#b49393"/>
  <path style="enable-background:accumulate;color:#000000;" d="m214,694s12.5-1.01,17.9,8.08c0.534,0.894,13.9-12.1,11.4-16.4-3.99-6.78-12.9-7.58-19.4-2.78-6.57,4.8-9.85,11.1-9.85,11.1z" fill-rule="nonzero" fill="#b49393"/>
  <path style="enable-background:accumulate;color:#000000;" d="m147,716s9.11-2.5,14.6,3.21c0,0,7.86-8.04,6.61-12.7-2-7.45-12.5-3.21-15.4-0.714-2.86,2.5-5.89,10.2-5.89,10.2z" fill-rule="nonzero" fill="#b49393"/>
  <path stroke-linejoin="miter" d="m246,903,8.93-38.6,60.4-73.6,46.8-37.9" filter="url(#filter4365)" stroke="#000" stroke-linecap="butt" stroke-width="1px" fill="none"/>
  <path stroke-linejoin="miter" style="enable-background:accumulate;color:#000000;" d="m237,813,27.1-42.5,51.8-54.3" stroke-dashoffset="0" filter="url(#filter4365-6)" stroke="#000" stroke-linecap="butt" stroke-miterlimit="4" stroke-dasharray="none" stroke-width="1px" fill="none"/>
  <path stroke-linejoin="miter" style="enable-background:accumulate;color:#000000;" d="m187,800,22.5-44.6,38.9-46.4" stroke-dashoffset="0" filter="url(#filter4365-4)" stroke="#000" stroke-linecap="butt" stroke-miterlimit="4" stroke-dasharray="none" stroke-width="1px" fill="none"/>
  <path stroke-linejoin="miter" style="enable-background:accumulate;color:#000000;" d="m135,804,13.9-34.6,25-43.9" stroke-dashoffset="0" filter="url(#filter4365-9)" stroke="#000" stroke-linecap="butt" stroke-miterlimit="4" stroke-dasharray="none" stroke-width="1px" fill="none"/>
  <path stroke-linejoin="miter" style="enable-background:accumulate;color:#000000;" d="m152,1030,16.4-35.7,32.1-16.4,37.9-6.43,30.7-10.7,34.3-25,36.4-28.6" stroke-dashoffset="0" filter="url(#filter4365-1)" stroke="#000" stroke-linecap="butt" stroke-miterlimit="4" stroke-dasharray="none" stroke-width="1px" fill="none"/>
  <path stroke-linejoin="miter" d="m141,725s7.07-3.54,15.7,2.53" stroke="#b49393" stroke-linecap="butt" stroke-width="1px" fill="none"/>
  <path stroke-linejoin="miter" d="m122,760s9.6-5.56,18.2,1.01" stroke="#b49393" stroke-linecap="butt" stroke-width="1px" fill="none"/>
  <path stroke-linejoin="miter" d="m207,704s9.6-2.02,16.7,6.06" stroke="#b49393" stroke-linecap="butt" stroke-width="1px" fill="none"/>
  <path stroke-linejoin="miter" d="m182,738s12.6-6.06,20.7,4.55" stroke="#b49393" stroke-linecap="butt" stroke-width="1px" fill="none"/>
  <path stroke-linejoin="miter" d="m270,711l19.2,8.59" stroke="#b49393" stroke-linecap="butt" stroke-width="1px" fill="none"/>
  <path stroke-linejoin="miter" d="m237,746s14.1-3.03,21.2,5.05" stroke="#b49393" stroke-linecap="butt" stroke-width="1px" fill="none"/>
  <path stroke-linejoin="miter" d="m320,742s12.6-2.02,17.2,11.6" stroke="#b49393" stroke-linecap="butt" stroke-width="1px" fill="none"/>
  <path stroke-linejoin="miter" d="m291,766s12.6-1.52,17.2,10.1" stroke="#b49393" stroke-linecap="butt" stroke-width="1px" fill="none"/>
  <path stroke-linejoin="miter" d="m327,889s10.6,9.6,6.06,24.2" stroke="#b49393" stroke-linecap="butt" stroke-width="1px" fill="none"/>
 </g>
</svg>
