<?xml version="1.0" encoding="UTF-8" standalone="no"?>
<!-- Created with Inkscape (http://www.inkscape.org/) -->
<svg xmlns:rdf="http://www.w3.org/1999/02/22-rdf-syntax-ns#" xmlns="http://www.w3.org/2000/svg" height="400" width="400" version="1.1" xmlns:cc="http://creativecommons.org/ns#" xmlns:dc="http://purl.org/dc/elements/1.1/">
 <defs>
  <filter id="filter4770">
   <feGaussianBlur stdDeviation="1.2847877"/>
  </filter>
  <filter id="filter4774" height="1.0534576" width="1.2620471" y="-0.0267288" x="-0.13102353">
   <feGaussianBlur stdDeviation="1.4062586"/>
  </filter>
  <filter id="filter4778">
   <feGaussianBlur stdDeviation="1.3455232"/>
  </filter>
  <filter id="filter4782" height="1.0525862" width="1.2852136" y="-0.026293125" x="-0.14260678">
   <feGaussianBlur stdDeviation="1.7706712"/>
  </filter>
  <filter id="filter4786">
   <feGaussianBlur stdDeviation="2.6723586"/>
  </filter>
 </defs>
 <metadata>
  <rdf:RDF>
   <cc:Work rdf:about="">
    <dc:format>image/svg+xml</dc:format>
    <dc:type rdf:resource="http://purl.org/dc/dcmitype/StillImage"/>
    <dc:title/>
   </cc:Work>
  </rdf:RDF>
 </metadata>
 <g transform="translate(0,-652.36218)">
  <path style="enable-background:accumulate;color:#000000;" d="m271,831s-103-22.2-148,4.04c-45.5,26.3,17.2,164,17.2,164s-5.16,25.5-13.9,25.6l140-1.72c0.141,0-10.4-10.1-6.11-21.9,0,0,32.4-116,11.2-170z" fill-rule="nonzero" fill="#7c4057"/>
  <path stroke-linejoin="miter" d="M124,193,77.8,83.8" transform="translate(0,652.36218)" stroke="#7c4057" stroke-linecap="round" stroke-miterlimit="4" stroke-dasharray="none" stroke-width="33" fill="none"/>
  <path stroke-linejoin="miter" d="M167,831,139,699" stroke="#7c4057" stroke-linecap="round" stroke-miterlimit="4" stroke-dasharray="none" stroke-width="38" fill="none"/>
  <path stroke-linejoin="miter" d="m212,832,0-154" stroke="#7c4057" stroke-linecap="round" stroke-miterlimit="4" stroke-dasharray="none" stroke-width="43" fill="#7c4057"/>
  <path stroke-linejoin="miter" d="M256,844,285,704" stroke="#7c4057" stroke-linecap="round" stroke-miterlimit="4" stroke-dasharray="none" stroke-width="40" fill="none"/>
  <path style="enable-background:accumulate;color:#000000;" d="m245,1000c12.4-32.9,39.5-41,64.6-69.7,32.3-38.4,45.4-72.6,60.5-83.7,15.2-11.1-19.1-38.4-36.3-21.2-9.58,9.58-26.6,34.7-43.1,45.5-13.1,8.55-22.6-15.8-26.6-17.2-9.09-3.03-19.2,146-19.2,146z" fill-rule="nonzero" fill="#7c4057"/>
  <path d="m73.2,97.1s2.82-7.14,18.2-7.14c0.714-0.000001-2.86-15-10.7-18.2-7.5-3.1-12.1,3.2-13.2,8.2s5.7,17.1,5.7,17.1z" transform="translate(0,652.36218)" fill="#b49393"/>
  <path style="enable-background:accumulate;color:#000000;" d="m129,57.1s11.4-7.5,22.9-4.64c1.43,0.357-2.5-17.9-7.14-19.3-5-1.4-15-1.1-17,4.7-2.5,5.71,1.07,19.3,1.07,19.3z" fill-rule="nonzero" transform="translate(0,652.36218)" fill="#b49393"/>
  <path style="enable-background:accumulate;color:#000000;" d="m198,38.2s15.7-7.26,26.1-0.357c0,0,3.14-18.1-1.79-23.6-6.43-7.14-16.1-6.79-21.8,0.357-5.71,7.14-2.5,23.6-2.5,23.6z" fill-rule="nonzero" transform="translate(0,652.36218)" fill="#b49393"/>
  <path style="enable-background:accumulate;color:#000000;" d="m271,59.3s15-2.5,20.7,5c0,0,8.21-16.9,3.57-23.6-4.64-6.79-12.5-7.86-19.3-2.14-6.79,5.71-5,20.8-5,20.8z" fill-rule="nonzero" transform="translate(0,652.36218)" fill="#b49393"/>
  <path style="enable-background:accumulate;color:#000000;" d="m345,203s9.74,1.79,6.79,16.1c0,0,20-28.9,18.6-22.5-1.43,6.43,7.86-16.1-10.7-13.2-18.6,2.86-14.6,19.6-14.6,19.6z" fill-rule="nonzero" transform="translate(0,652.36218)" fill="#b49393"/>
  <path stroke-linejoin="miter" d="M133,178,90.4,77.3" transform="translate(0,652.36218)" filter="url(#filter4770)" stroke="#000" stroke-linecap="butt" stroke-width="1px" fill="none"/>
  <path stroke-linejoin="miter" d="M182,170,156,41.4" transform="translate(0,652.36218)" filter="url(#filter4774)" stroke="#000" stroke-linecap="butt" stroke-width="1px" fill="none"/>
  <path stroke-linejoin="miter" d="M230,172,231,27" transform="translate(0,652.36218)" filter="url(#filter4778)" stroke="#000" stroke-linecap="butt" stroke-width="1px" fill="none"/>
  <path stroke-linejoin="miter" d="M276,219,272,192,302,53" transform="translate(0,652.36218)" filter="url(#filter4782)" stroke="#000" stroke-linecap="butt" stroke-width="1px" fill="none"/>
  <path stroke-linejoin="miter" d="m260,367-6.18-15.4,11.7-40.1,40-32.2,65.9-89.8" transform="translate(0,652.36218)" filter="url(#filter4786)" stroke="#000" stroke-linecap="butt" stroke-width="1px" fill="none"/>
  <path stroke-linejoin="miter" d="m79.3,108s5.05-10.1,15.7-7.07" transform="translate(0,652.36218)" stroke="#b49393" stroke-linecap="butt" stroke-width="1px" fill="none"/>
  <path stroke-linejoin="miter" d="m94.4,147s9.6-9.6,16.2-8.08" transform="translate(0,652.36218)" stroke="#b49393" stroke-linecap="butt" stroke-width="1px" fill="none"/>
  <path stroke-linejoin="miter" d="m133,71.2s11.6-9.6,20.2-4.04" transform="translate(0,652.36218)" stroke="#b49393" stroke-linecap="butt" stroke-width="1px" fill="none"/>
  <path stroke-linejoin="miter" d="m142,121s14.1-8.59,24.2-5.05" transform="translate(0,652.36218)" stroke="#b49393" stroke-linecap="butt" stroke-width="1px" fill="none"/>
  <path stroke-linejoin="miter" d="m198,50.5s13.6-8.59,26.3,0" transform="translate(0,652.36218)" stroke="#b49393" stroke-linecap="butt" stroke-width="1px" fill="none"/>
  <path stroke-linejoin="miter" d="m200,104s14.6-6.57,24.7,0" transform="translate(0,652.36218)" stroke="#b49393" stroke-linecap="butt" stroke-width="1px" fill="none"/>
  <path stroke-linejoin="miter" d="m266,67.2s18.7-2.02,24.7,4.55" transform="translate(0,652.36218)" stroke="#b49393" stroke-linecap="butt" stroke-width="1px" fill="none"/>
  <path stroke-linejoin="miter" d="m257,112s17.2-5.05,26.8,4.55" transform="translate(0,652.36218)" stroke="#b49393" stroke-linecap="butt" stroke-width="1px" fill="none"/>
  <path stroke-linejoin="miter" d="m340,209s8.08,3.03,8.08,16.2" transform="translate(0,652.36218)" stroke="#b49393" stroke-linecap="butt" stroke-width="1px" fill="none"/>
 </g>
</svg>
